<?xml version="1.0" encoding="ISO-8859-1"?>
<!DOCTYPE svg PUBLIC "-//W3C//DTD SVG 1.0//EN" "http://www.w3.org/TR/2001/REC-SVG-20010904/DTD/svg10.dtd">
<!-- generated by Grace-5.1.25 -->
<svg xml:space="preserve" width="11.0000in" height="8.5000in" viewBox="0.0000 0.0000 792.0000 612.0000">
 <g transform="translate(0,612.0000) scale(1,-1)">
  <g style="fill:#FFFFFF; fill-rule:nonzero">
   <path  d="M0.0000,0.0000L0.0000,612.0000L792.0000,612.0000L792.0000,0.0000z"/>
  </g>
  <g style="fill:none; stroke:#000000; stroke-width:  0.9180; stroke-linecap:butt; stroke-linejoin:miter; stroke-dasharray:none">
   <path d="M159.8000,511.0631L193.8000,103.2671L227.8000,94.1109L261.8000,103.3672L295.8000,110.3804L329.8000,120.5936L363.8000,117.7002L397.8000,115.4338L431.8000,99.9558L465.8000,93.7460
            L499.8000,91.8000L533.8000,96.1069L567.8000,92.9817L601.8000,104.1008L635.8000,133.1187L669.8000,511.0631"/>
   <path d="M91.8000,91.8000L703.8000,91.8000"/>
   <path d="M91.8000,520.2000L703.8000,520.2000"/>
   <path d="M159.8000,91.8000L159.8000,97.9200"/>
   <path d="M159.8000,520.2000L159.8000,514.0800"/>
   <path d="M295.8000,91.8000L295.8000,97.9200"/>
   <path d="M295.8000,520.2000L295.8000,514.0800"/>
   <path d="M431.8000,91.8000L431.8000,97.9200"/>
   <path d="M431.8000,520.2000L431.8000,514.0800"/>
   <path d="M567.8000,91.8000L567.8000,97.9200"/>
   <path d="M567.8000,520.2000L567.8000,514.0800"/>
   <path d="M703.8000,91.8000L703.8000,97.9200"/>
   <path d="M703.8000,520.2000L703.8000,514.0800"/>
   <path d="M91.8000,91.8000L91.8000,104.0400"/>
   <path d="M91.8000,520.2000L91.8000,507.9600"/>
   <path d="M227.8000,91.8000L227.8000,104.0400"/>
   <path d="M227.8000,520.2000L227.8000,507.9600"/>
   <path d="M363.8000,91.8000L363.8000,104.0400"/>
   <path d="M363.8000,520.2000L363.8000,507.9600"/>
   <path d="M499.8000,91.8000L499.8000,104.0400"/>
   <path d="M499.8000,520.2000L499.8000,507.9600"/>
   <path d="M635.8000,91.8000L635.8000,104.0400"/>
   <path d="M635.8000,520.2000L635.8000,507.9600"/>
  </g>
  <g style="fill:#000000; fill-rule:nonzero">
   <text   style="font-family:'Times','Nimbus Roman No9 L'; font-style:normal; font-weight:normal; font-size:612.0000" transform="matrix(0.0280,0.0000,-0.0000,-0.0280,87.8000,74.6800)">0</text>
   <text   style="font-family:'Times','Nimbus Roman No9 L'; font-style:normal; font-weight:normal; font-size:612.0000" transform="matrix(0.0280,0.0000,-0.0000,-0.0280,223.8000,74.6800)">2</text>
   <text   style="font-family:'Times','Nimbus Roman No9 L'; font-style:normal; font-weight:normal; font-size:612.0000" transform="matrix(0.0280,0.0000,-0.0000,-0.0280,359.8000,74.6800)">4</text>
   <text   style="font-family:'Times','Nimbus Roman No9 L'; font-style:normal; font-weight:normal; font-size:612.0000" transform="matrix(0.0280,0.0000,-0.0000,-0.0280,495.8000,73.6800)">6</text>
   <text   style="font-family:'Times','Nimbus Roman No9 L'; font-style:normal; font-weight:normal; font-size:612.0000" transform="matrix(0.0280,0.0000,-0.0000,-0.0280,631.8000,74.6800)">8</text>
   <text   style="font-family:'Times','Nimbus Roman No9 L'; font-style:normal; font-weight:normal; font-size:612.0000" transform="matrix(0.0280,0.0000,-0.0000,-0.0280,343.3000,55.5600)">dist_s204-w207</text>
  </g>
  <g style="fill:none; stroke:#000000; stroke-width:  0.9180; stroke-linecap:butt; stroke-linejoin:miter; stroke-dasharray:none">
   <path d="M91.8000,91.8000L91.8000,520.2000"/>
   <path d="M703.8000,91.8000L703.8000,520.2000"/>
   <path d="M91.8000,127.5000L97.9200,127.5000"/>
   <path d="M703.8000,127.5000L697.6800,127.5000"/>
   <path d="M91.8000,198.9000L97.9200,198.9000"/>
   <path d="M703.8000,198.9000L697.6800,198.9000"/>
   <path d="M91.8000,270.3000L97.9200,270.3000"/>
   <path d="M703.8000,270.3000L697.6800,270.3000"/>
   <path d="M91.8000,341.7000L97.9200,341.7000"/>
   <path d="M703.8000,341.7000L697.6800,341.7000"/>
   <path d="M91.8000,413.1000L97.9200,413.1000"/>
   <path d="M703.8000,413.1000L697.6800,413.1000"/>
   <path d="M91.8000,484.5000L97.9200,484.5000"/>
   <path d="M703.8000,484.5000L697.6800,484.5000"/>
   <path d="M91.8000,91.8000L104.0400,91.8000"/>
   <path d="M703.8000,91.8000L691.5600,91.8000"/>
   <path d="M91.8000,163.2000L104.0400,163.2000"/>
   <path d="M703.8000,163.2000L691.5600,163.2000"/>
   <path d="M91.8000,234.6000L104.0400,234.6000"/>
   <path d="M703.8000,234.6000L691.5600,234.6000"/>
   <path d="M91.8000,306.0000L104.0400,306.0000"/>
   <path d="M703.8000,306.0000L691.5600,306.0000"/>
   <path d="M91.8000,377.4000L104.0400,377.4000"/>
   <path d="M703.8000,377.4000L691.5600,377.4000"/>
   <path d="M91.8000,448.8000L104.0400,448.8000"/>
   <path d="M703.8000,448.8000L691.5600,448.8000"/>
   <path d="M91.8000,520.2000L104.0400,520.2000"/>
   <path d="M703.8000,520.2000L691.5600,520.2000"/>
  </g>
  <g style="fill:#000000; fill-rule:nonzero">
   <text   style="font-family:'Times','Nimbus Roman No9 L'; font-style:normal; font-weight:normal; font-size:612.0000" transform="matrix(0.0280,0.0000,-0.0000,-0.0280,77.6800,86.3000)">0</text>
   <text   style="font-family:'Times','Nimbus Roman No9 L'; font-style:normal; font-weight:normal; font-size:612.0000" transform="matrix(0.0280,0.0000,-0.0000,-0.0280,77.6800,157.2000)">5</text>
   <text   style="font-family:'Times','Nimbus Roman No9 L'; font-style:normal; font-weight:normal; font-size:612.0000" transform="matrix(0.0280,0.0000,-0.0000,-0.0280,68.6800,228.6000)">10</text>
   <text   style="font-family:'Times','Nimbus Roman No9 L'; font-style:normal; font-weight:normal; font-size:612.0000" transform="matrix(0.0280,0.0000,-0.0000,-0.0280,68.6800,300.0000)">15</text>
   <text   style="font-family:'Times','Nimbus Roman No9 L'; font-style:normal; font-weight:normal; font-size:612.0000" transform="matrix(0.0280,0.0000,-0.0000,-0.0280,68.6800,371.9000)">20</text>
   <text   style="font-family:'Times','Nimbus Roman No9 L'; font-style:normal; font-weight:normal; font-size:612.0000" transform="matrix(0.0280,0.0000,-0.0000,-0.0280,68.6800,442.8000)">25</text>
   <text   style="font-family:'Times','Nimbus Roman No9 L'; font-style:normal; font-weight:normal; font-size:612.0000" transform="matrix(0.0280,0.0000,-0.0000,-0.0280,68.6800,514.7000)">30</text>
   <text   style="font-family:'Times','Nimbus Roman No9 L'; font-style:normal; font-weight:normal; font-size:612.0000" transform="matrix(0.0000,0.0280,0.0280,-0.0000,58.5600,253.5000)">PMF(kcal/mol)</text>
  </g>
  <g style="fill:none; stroke:#000000; stroke-width:  0.9180; stroke-linecap:butt; stroke-linejoin:miter; stroke-dasharray:none">
   <path d="M91.8000,91.8000L91.8000,520.2000L703.8000,520.2000L703.8000,91.8000z"/>
  </g>
 </g>
</svg>
